<?xml version="1.0" encoding="UTF-8"?>
<svg width="512" height="512" viewBox="0 0 512 512" fill="none" xmlns="http://www.w3.org/2000/svg">
    <rect width="512" height="512" fill="#F5F5F5"/>
    <rect x="56" y="56" width="400" height="400" rx="8" fill="#E0E0E0"/>
    <path d="M256 200C233.909 200 216 182.091 216 160C216 137.909 233.909 120 256 120C278.091 120 296 137.909 296 160C296 182.091 278.091 200 256 200ZM256 184C270.327 184 280 174.327 280 160C280 145.673 270.327 136 256 136C241.673 136 232 145.673 232 160C232 174.327 241.673 184 256 184Z" fill="#9E9E9E"/>
    <path d="M376 336H136C123.178 336 112.7 325.522 112.7 312.7V199.3C112.7 186.478 123.178 176 136 176H376C388.822 176 399.3 186.478 399.3 199.3V312.7C399.3 325.522 388.822 336 376 336ZM136 192C130.477 192 126 196.477 126 202V312C126 317.523 130.477 322 136 322H376C381.523 322 386 317.523 386 312V202C386 196.477 381.523 192 376 192H136Z" fill="#9E9E9E"/>
    <path d="M336 224C329.373 224 324 228.477 324 234C324 239.523 328.477 244 334 244C339.523 244 344 239.523 344 234C344 228.477 338.627 224 336 224Z" fill="#9E9E9E"/>
    <path d="M256 312C249.373 312 244 307.523 244 302C244 296.477 249.373 292 256 292H336C341.523 292 346 296.477 346 302C346 307.523 341.523 312 336 312H256Z" fill="#9E9E9E"/>
    <path d="M256 272C249.373 272 244 267.523 244 262C244 256.477 249.373 252 256 252H336C341.523 252 346 256.477 346 262C346 267.523 341.523 272 336 272H256Z" fill="#9E9E9E"/>
    <path d="M256 232C249.373 232 244 227.523 244 222C244 216.477 249.373 212 256 212H276C281.523 212 286 216.477 286 222C286 227.523 281.523 232 276 232H256Z" fill="#9E9E9E"/>
    <text x="256" y="480" font-family="Arial" font-size="14" text-anchor="middle" fill="#9E9E9E">Image Generation Unavailable</text>
</svg>
